<svg width="198" height="201" viewBox="0 0 198 201" fill="none" xmlns="http://www.w3.org/2000/svg">
<path d="M147.226 58.3698L172.682 32.9139C205.733 74.1297 205.596 134.192 171.622 169.032C134.007 207.606 77.5905 213.389 31.6145 173.982L57.9409 146.568C96.5267 168.341 121.252 163.763 143.691 141.101C166.13 118.44 166.699 89.6315 147.226 58.3698Z" fill="#ADA82B"/>
<path d="M50.0621 142.518L24.6062 167.974C-8.44481 126.758 -8.30753 66.6958 25.6669 31.8555C63.2818 -6.71806 119.698 -12.5011 165.674 26.9057L139.348 54.3194C100.762 32.5465 76.0367 37.1249 53.5976 59.7862C31.1585 82.4476 30.5899 111.256 50.0621 142.518Z" fill="#ADA82B"/>
<path d="M136.15 93.4939C139.593 95.396 139.593 100.345 136.15 102.247L81.7389 132.31C78.4064 134.151 74.3208 131.741 74.3208 127.933V67.8073C74.3208 64 78.4064 61.5896 81.7389 63.4308L136.15 93.4939Z" fill="#ADA82B"/>
</svg>
